<svg xmlns="http://www.w3.org/2000/svg" viewBox="0 0 1280 1024"><defs><style>.cls-1{fill:#4a5759;}.cls-2{fill:#c4745a;}.cls-3{fill:#545c52;}.cls-4{fill:#dedbd2;}</style></defs><g id="bloo"><path class="cls-1" d="M.5,895.5c36.55-40.81,95.66-97.45,181-142,95.77-50,125.56-33.06,196-65,160.83-72.92,127-216.21,346-425,118.73-113.17,179.59-119.6,209-119,59.28,1.21,92.39,33,147,12,51.71-19.9,61.43-63.69,111-72,36-6,68.7,10.7,89.5,24.5q-.49,442.81-.5,885.5v29H-.5Q0,959.5.5,895.5Z"/></g><g id="DEEP_SPACE_SPARKLE_BLUE" data-name="DEEP SPACE SPARKLE BLUE"><path class="cls-2" d="M.5,770.5c48,10.29,117.62,16.72,181-17,66.68-35.48,67.17-83.83,156-183,69.89-78,122.22-136.45,199-147,75.29-10.34,88.56,37.08,202,43,32.17,1.68,115.75,7,194-38,69.09-39.77,73.44-80.55,142-142C1114.94,250.25,1179,206.1,1280,178v846L.5,1024.5Z"/></g><g id="green_line" data-name="green line"><path class="cls-3" d="M149.5,839.5c84.31-43.08,158.44-73.14,195-81,111.18-23.91,135.83,4.53,191-30,58.94-36.89,34.44-71.62,118-147,32.73-29.52,49.61-36,119-95,30.35-25.79,49.46-43.53,60-53,92.54-83.19,201.21-180.86,295-164C1212.09,284.7,1261,388.83,1280,437v587L.5,1024.5C45,911.39,103.77,862.87,149.5,839.5Z"/></g><g id="Layer_3" data-name="Layer 3"><path class="cls-4" d="M900.5,1023.5c.09-208.19,54-285.56,107-316,49.65-28.53,84.51-7.84,123-44,70.14-65.9-6.68-192.82,64-276,26.22-30.85,61.77-43.59,85.5-49.5.45,103.73.52,188.31.5,246.5,0,133.72-.48,231-.5,398.5v41Z"/></g></svg>